%TF.GenerationSoftware,KiCad,Pcbnew,10.0.4*%
%TF.CreationDate,2026-08-09T22:35:52+05:30*%
%TF.ProjectId,relay_daughter,72656c61-795f-4646-9175-67687465722e,rev?*%
%TF.SameCoordinates,Original*%
%TF.FileFunction,Copper,L1,Top*%
%TF.FilePolarity,Positive*%
%FSLAX46Y46*%
G04 Gerber Fmt 4.6, Leading zero omitted, Abs format (unit mm)*
G04 Created by KiCad (PCBNEW 10.0.4) date 2026-08-09 22:35:52*
%MOMM*%
%LPD*%
G01*
G04 APERTURE LIST*
G04 Aperture macros list*
%AMRoundRect*
0 Rectangle with rounded corners*
0 $1 Rounding radius*
0 $2 $3 $4 $5 $6 $7 $8 $9 X,Y pos of 4 corners*
0 Add a 4 corners polygon primitive as box body*
4,1,4,$2,$3,$4,$5,$6,$7,$8,$9,$2,$3,0*
0 Add four circle primitives for the rounded corners*
1,1,$1+$1,$2,$3*
1,1,$1+$1,$4,$5*
1,1,$1+$1,$6,$7*
1,1,$1+$1,$8,$9*
0 Add four rect primitives between the rounded corners*
20,1,$1+$1,$2,$3,$4,$5,0*
20,1,$1+$1,$4,$5,$6,$7,0*
20,1,$1+$1,$6,$7,$8,$9,0*
20,1,$1+$1,$8,$9,$2,$3,0*%
G04 Aperture macros list end*
%TA.AperFunction,ComponentPad*%
%ADD10C,1.700000*%
%TD*%
%TA.AperFunction,ComponentPad*%
%ADD11R,1.700000X1.700000*%
%TD*%
%TA.AperFunction,ComponentPad*%
%ADD12RoundRect,0.250001X0.799999X-0.799999X0.799999X0.799999X-0.799999X0.799999X-0.799999X-0.799999X0*%
%TD*%
%TA.AperFunction,ComponentPad*%
%ADD13C,2.100000*%
%TD*%
%TA.AperFunction,ComponentPad*%
%ADD14C,3.000000*%
%TD*%
%TA.AperFunction,ComponentPad*%
%ADD15C,2.500000*%
%TD*%
%TA.AperFunction,ComponentPad*%
%ADD16C,2.400000*%
%TD*%
%TA.AperFunction,Conductor*%
%ADD17C,2.000000*%
%TD*%
%TA.AperFunction,Conductor*%
%ADD18C,0.200000*%
%TD*%
G04 APERTURE END LIST*
D10*
%TO.P,J1,3,Pin_3_3*%
%TO.N,/RELAY_OUT2*%
X33500000Y-54000000D03*
%TO.P,J1,2,Pin_2_2*%
%TO.N,+5V*%
X36040000Y-54000000D03*
D11*
%TO.P,J1,1,Pin_1_1*%
%TO.N,/RELAY_OUT1*%
X38580000Y-54000000D03*
%TD*%
D12*
%TO.P,TB1,1,Pin_1_1*%
%TO.N,/LOAD_OUT1*%
X70600000Y-46500000D03*
D13*
%TO.P,TB1,2,Pin_2_2*%
%TO.N,/MAINS_LIVE_IN1*%
X70600000Y-41500000D03*
%TO.P,TB1,3,Pin_3_3*%
%TO.N,/LOAD_OUT2*%
X70600000Y-36500000D03*
%TD*%
D14*
%TO.P,K4,1*%
%TO.N,/LOAD_OUT1*%
X58300000Y-48500000D03*
D15*
%TO.P,K4,2*%
%TO.N,/RELAY_OUT1*%
X64350000Y-46550000D03*
D14*
%TO.P,K4,3*%
%TO.N,/MAINS_LIVE_IN1*%
X64350000Y-34350000D03*
%TO.P,K4,4*%
%TO.N,unconnected-(K4-Pad4)*%
X52300000Y-34300000D03*
D15*
%TO.P,K4,5*%
%TO.N,+5V*%
X52350000Y-46550000D03*
%TD*%
D14*
%TO.P,K3,1*%
%TO.N,/LOAD_OUT2*%
X31550000Y-43800000D03*
D15*
%TO.P,K3,2*%
%TO.N,/RELAY_OUT2*%
X33500000Y-49850000D03*
D14*
%TO.P,K3,3*%
%TO.N,/MAINS_LIVE_IN1*%
X45700000Y-49850000D03*
%TO.P,K3,4*%
%TO.N,unconnected-(K3-Pad4)*%
X45750000Y-37800000D03*
D15*
%TO.P,K3,5*%
%TO.N,+5V*%
X33500000Y-37850000D03*
%TD*%
D16*
%TO.P,C_SNUB2,1*%
%TO.N,/MAINS_LIVE_IN1*%
X47200000Y-32750000D03*
%TO.P,C_SNUB2,2*%
%TO.N,/LOAD_OUT2*%
X32200000Y-32750000D03*
%TD*%
%TO.P,C_SNUB1,1*%
%TO.N,/MAINS_LIVE_IN1*%
X55500000Y-53000000D03*
%TO.P,C_SNUB1,2*%
%TO.N,/LOAD_OUT1*%
X70500000Y-53000000D03*
%TD*%
%TO.N,/LOAD_OUT2*%
D17*
X70600000Y-36500000D02*
X68846804Y-36500000D01*
X68846804Y-36500000D02*
X63946804Y-41400000D01*
X63946804Y-41400000D02*
X48796804Y-41400000D01*
X48796804Y-41400000D02*
X47696804Y-42500000D01*
X47696804Y-42500000D02*
X40756749Y-42500000D01*
X40756749Y-42500000D02*
X37950000Y-39693251D01*
%TO.N,/RELAY_OUT1*%
D18*
X64350000Y-46550000D02*
X62500000Y-44700000D01*
X62500000Y-44700000D02*
X56725988Y-44700000D01*
X56725988Y-44700000D02*
X54050252Y-47375736D01*
X54050252Y-47375736D02*
X54050252Y-49500000D01*
X54050252Y-49500000D02*
X49050252Y-54500000D01*
X49050252Y-54500000D02*
X39080000Y-54500000D01*
X39080000Y-54500000D02*
X38580000Y-54000000D01*
%TO.N,+5V*%
X52350000Y-46550000D02*
X52350000Y-48574012D01*
X52350000Y-48574012D02*
X47274012Y-53650000D01*
X47274012Y-53650000D02*
X40730000Y-53650000D01*
X40730000Y-53650000D02*
X39580000Y-52500000D01*
X39580000Y-52500000D02*
X37540000Y-52500000D01*
X37540000Y-52500000D02*
X36040000Y-54000000D01*
%TO.N,/LOAD_OUT1*%
D17*
X58300000Y-48500000D02*
X62800000Y-53000000D01*
X62800000Y-53000000D02*
X70500000Y-53000000D01*
X70600000Y-46500000D02*
X70600000Y-52900000D01*
X70600000Y-52900000D02*
X70500000Y-53000000D01*
%TO.N,/LOAD_OUT2*%
X31550000Y-43800000D02*
X33843251Y-43800000D01*
X33843251Y-43800000D02*
X37950000Y-39693251D01*
X37950000Y-39693251D02*
X37950000Y-36006749D01*
X37950000Y-36006749D02*
X34693251Y-32750000D01*
X34693251Y-32750000D02*
X32200000Y-32750000D01*
%TD*%
M02*
